<?xml version="1.0" encoding="UTF-8"?>
<svg id="Layer_1" data-name="Layer 1" xmlns="http://www.w3.org/2000/svg" viewBox="0 0 133 93">
  <defs>
    <style>
      .cls-1 {
        fill: #f25e5e;
      }

      .cls-2 {
        fill: #fff;
        isolation: isolate;
        opacity: .9;
      }

      .cls-3 {
        fill: #83a999;
      }
    </style>
  </defs>
  <rect class="cls-3" width="133" height="93" rx="18" ry="18"/>
  <path d="M11.61,60.86V20.24h9.38V57.74c0,2.08,1.04,3.12,3.12,3.12v6.25h-6.25c-4.17,0-6.25-2.08-6.25-6.25ZM53.8,20.24v7.81H30.36v-7.81h23.44Zm14.06,37.5V20.24h9.38V57.74c0,6.25-4.69,9.38-14.06,9.38s-14.06-3.12-14.06-9.38v-15.62c0-2.08-1.56-3.12-4.69-3.12s-4.69,1.04-4.69,3.12v15.62c0,2.08,1.56,3.12,4.69,3.12v6.25h-7.03c-4.69,0-7.03-3.12-7.03-9.38v-15.62c0-6.25,4.69-9.38,14.06-9.38s14.06,3.12,14.06,9.38v15.62c0,2.08,1.56,3.12,4.69,3.12s4.69-1.04,4.69-3.12Zm-20.31,26.56v-7.81h20.31v-7.81h9.38v5.88l-3.84,1.97c.79,.08,1.54,.33,2.25,.75,.98,.54,1.75,1.31,2.31,2.31,.56,1,.84,2.05,.84,3.16,0,4.17-1.75,6.25-5.25,6.25s-5.32-1.57-5.47-4.72l-20.53,.03ZM95.99,29.61v37.5h-9.38V31.17c0-2.08-1.56-3.12-4.69-3.12h-3.12v-7.81h3.12c9.38,0,14.06,3.12,14.06,9.38Z"/>
  <path class="cls-2" d="M15.61,57.75V17.12h9.38V54.62c0,2.08,1.04,3.12,3.12,3.12v6.25h-6.25c-4.17,0-6.25-2.08-6.25-6.25ZM57.8,17.12v7.81h-23.44v-7.81h23.44Zm14.06,37.5V17.12h9.38V54.62c0,6.25-4.69,9.38-14.06,9.38s-14.06-3.12-14.06-9.38v-15.62c0-2.08-1.56-3.12-4.69-3.12s-4.69,1.04-4.69,3.12v15.62c0,2.08,1.56,3.12,4.69,3.12v6.25h-7.03c-4.69,0-7.03-3.12-7.03-9.38v-15.62c0-6.25,4.69-9.38,14.06-9.38s14.06,3.12,14.06,9.38v15.62c0,2.08,1.56,3.12,4.69,3.12s4.69-1.04,4.69-3.12Zm-20.31,26.56v-7.81h20.31v-7.81h9.38v5.88l-3.84,1.97c.79,.08,1.54,.33,2.25,.75,.98,.54,1.75,1.31,2.31,2.31,.56,1,.84,2.05,.84,3.16,0,4.17-1.75,6.25-5.25,6.25s-5.32-1.57-5.47-4.72l-20.53,.03ZM99.99,26.5v37.5h-9.38V28.06c0-2.08-1.56-3.12-4.69-3.12h-3.12v-7.81h3.12c9.38,0,14.06,3.12,14.06,9.38Z"/>
  <path class="cls-1" d="M127,27.17c0,5.06-4.03,9.17-9,9.17s-9-4.1-9-9.17,4.03-9.17,9-9.17,9,4.1,9,9.17Z"/>
  <path class="cls-1" d="M127,52.83c0,5.06-4.03,9.17-9,9.17s-9-4.1-9-9.17,4.03-9.17,9-9.17,9,4.1,9,9.17Z"/>
</svg>